<svg width="1436" height="147" viewBox="0 0 1436 147" fill="none" xmlns="http://www.w3.org/2000/svg">
<path d="M790.153 62.9557V56.4269H784.811V62.9557H778.667V56.4269H773.326V62.9557H766.434V56.4269H761.09V62.9557H754.947V56.4269H749.603V62.9557H748.361V68.124H752.807V82.0586H735.594V59.7441H734.112V42.6135L720.859 20.528V9.99896C724.124 6.84383 726.877 6.88784 731.233 8.09287C735.784 9.35048 738.578 9.35399 742.046 5.74863C733.907 10.6914 728.886 -3.44684 720.86 0.815558V0H718.839V21.0729L705.913 42.6131V59.7437H704.43V82.0582H687.193V68.1236H691.639V62.9553H690.397V56.4266H685.057V62.9553H678.91V56.4266H673.569V62.9553H666.678V56.4266H661.334V62.9553H655.191V56.4266H649.847V62.9553H648.605V68.1236H653.051V148H681.738H687.192H752.807H758.262H786.949V68.124H791.395V62.9557H790.153ZM674.236 138.851H666.008V125.944C666.008 123.673 667.85 121.831 670.122 121.831C672.394 121.831 674.236 123.673 674.236 125.944V138.851H674.236ZM681.828 71.7103H658.413V68.124H681.828V71.7103ZM720 40.7308C725.114 42.825 724.884 46.2083 724.884 46.2083V57.4302H720H715.117V46.2083C715.117 46.2083 714.886 42.825 720 40.7308ZM734.119 106.801V139.244H720H705.881V106.801C705.881 106.801 705.219 97.0202 720 90.9655C734.783 97.0198 734.119 106.801 734.119 106.801ZM773.992 138.851H765.764V125.944C765.764 123.673 767.607 121.831 769.878 121.831C772.15 121.831 773.992 123.673 773.992 125.944V138.851ZM781.587 71.7103H758.172V68.124H781.587V71.7103V71.7103Z" fill="white"/>
<path d="M613.077 97.8327V92.3537V87.9664C613.077 86.6418 612.003 85.5677 610.678 85.5677H606.933C605.608 85.5677 604.534 86.6418 604.534 87.9664V90.9492C604.534 91.725 603.905 92.3537 603.13 92.3537H600.858C600.082 92.3537 599.454 91.7247 599.454 90.9492V87.9664C599.454 86.6418 598.379 85.5677 597.055 85.5677H593.3C591.975 85.5677 590.901 86.6418 590.901 87.9664V90.9492C590.901 91.725 590.272 92.3537 589.496 92.3537H587.206C586.438 92.3537 585.812 91.7363 585.802 90.9683L585.76 87.9335C585.742 86.6218 584.674 85.5677 583.362 85.5677H579.583C578.259 85.5677 577.185 86.6418 577.185 87.9664V90.9492C577.185 91.725 576.556 92.3537 575.78 92.3537H573.509C572.733 92.3537 572.104 91.7247 572.104 90.9492V87.9664C572.104 86.6418 571.03 85.5677 569.706 85.5677H565.951C564.626 85.5677 563.552 86.6418 563.552 87.9664V90.9492C563.552 91.725 562.923 92.3537 562.148 92.3537H559.876C559.1 92.3537 558.471 91.7247 558.471 90.9492V87.9664C558.471 86.6418 557.397 85.5677 556.073 85.5677H552.323C550.998 85.5677 549.924 86.6418 549.924 87.9664V92.3537V97.8327L554.961 104.561H554.991V179.433H608.009V104.561H608.04L613.077 97.8327ZM588.112 132.524H574.879V121.408C574.879 117.756 577.84 114.793 581.496 114.793C585.152 114.793 588.112 117.756 588.112 121.409V132.524H588.112Z" fill="white"/>
<path d="M648.886 119.874C648.885 119.234 648.628 118.622 648.173 118.172C647.718 117.722 647.102 117.473 646.463 117.48L642.712 117.519C641.397 117.532 640.339 118.602 640.339 119.917V122.836C640.339 123.612 639.71 124.241 638.934 124.241H636.657C635.882 124.241 635.253 123.612 635.253 122.836V119.854C635.253 118.529 634.179 117.455 632.855 117.455H629.104C627.78 117.455 626.706 118.529 626.706 119.854V122.836C626.706 123.612 626.077 124.241 625.302 124.241H623.034C622.258 124.241 621.629 123.612 621.629 122.836V119.854C621.629 118.529 620.556 117.455 619.231 117.455H615.476C614.151 117.455 613.078 118.529 613.078 119.854V179.431H649L648.886 119.874Z" fill="white"/>
<path d="M549.809 119.849C549.807 118.526 548.733 117.455 547.41 117.455H543.716C542.404 117.455 541.335 118.509 541.317 119.821L541.276 122.855C541.266 123.623 540.64 124.24 539.872 124.24H537.585C536.809 124.24 536.18 123.612 536.18 122.836V119.854C536.18 118.529 535.107 117.455 533.782 117.455H530.031C528.707 117.455 527.633 118.529 527.633 119.854V122.836C527.633 123.612 527.004 124.241 526.228 124.241H523.952C523.176 124.241 522.548 123.612 522.548 122.836V119.854C522.548 118.529 521.474 117.455 520.149 117.455H516.398C515.074 117.455 514 118.529 514 119.854V179.432H549.923L549.809 119.849Z" fill="white"/>
<path d="M1387.08 91.8327V86.3537V81.9664C1387.08 80.6418 1386 79.5677 1384.68 79.5677H1380.93C1379.61 79.5677 1378.53 80.6418 1378.53 81.9664V84.9492C1378.53 85.725 1377.9 86.3537 1377.13 86.3537H1374.86C1374.08 86.3537 1373.45 85.7247 1373.45 84.9492V81.9664C1373.45 80.6418 1372.38 79.5677 1371.05 79.5677H1367.3C1365.97 79.5677 1364.9 80.6418 1364.9 81.9664V84.9492C1364.9 85.725 1364.27 86.3537 1363.5 86.3537H1361.21C1360.44 86.3537 1359.81 85.7363 1359.8 84.9683L1359.76 81.9335C1359.74 80.6218 1358.67 79.5677 1357.36 79.5677H1353.58C1352.26 79.5677 1351.18 80.6418 1351.18 81.9664V84.9492C1351.18 85.725 1350.56 86.3537 1349.78 86.3537H1347.51C1346.73 86.3537 1346.1 85.7247 1346.1 84.9492V81.9664C1346.1 80.6418 1345.03 79.5677 1343.71 79.5677H1339.95C1338.63 79.5677 1337.55 80.6418 1337.55 81.9664V84.9492C1337.55 85.725 1336.92 86.3537 1336.15 86.3537H1333.88C1333.1 86.3537 1332.47 85.7247 1332.47 84.9492V81.9664C1332.47 80.6418 1331.4 79.5677 1330.07 79.5677H1326.32C1325 79.5677 1323.92 80.6418 1323.92 81.9664V86.3537V91.8327L1328.96 98.5613H1328.99V173.433H1382.01V98.5613H1382.04L1387.08 91.8327ZM1362.11 126.524H1348.88V115.408C1348.88 111.756 1351.84 108.793 1355.5 108.793C1359.15 108.793 1362.11 111.756 1362.11 115.409V126.524H1362.11Z" fill="white"/>
<path d="M1422.89 113.874C1422.88 113.234 1422.63 112.622 1422.17 112.172C1421.72 111.722 1421.1 111.473 1420.46 111.48L1416.71 111.519C1415.4 111.532 1414.34 112.602 1414.34 113.917V116.836C1414.34 117.612 1413.71 118.241 1412.93 118.241H1410.66C1409.88 118.241 1409.25 117.612 1409.25 116.836V113.854C1409.25 112.529 1408.18 111.455 1406.85 111.455H1403.1C1401.78 111.455 1400.71 112.529 1400.71 113.854V116.836C1400.71 117.612 1400.08 118.241 1399.3 118.241H1397.03C1396.26 118.241 1395.63 117.612 1395.63 116.836V113.854C1395.63 112.529 1394.56 111.455 1393.23 111.455H1389.48C1388.15 111.455 1387.08 112.529 1387.08 113.854V173.431H1423L1422.89 113.874Z" fill="white"/>
<path d="M1323.81 113.849C1323.81 112.526 1322.73 111.455 1321.41 111.455H1317.72C1316.4 111.455 1315.33 112.509 1315.32 113.821L1315.28 116.855C1315.27 117.623 1314.64 118.24 1313.87 118.24H1311.58C1310.81 118.24 1310.18 117.612 1310.18 116.836V113.854C1310.18 112.529 1309.11 111.455 1307.78 111.455H1304.03C1302.71 111.455 1301.63 112.529 1301.63 113.854V116.836C1301.63 117.612 1301 118.241 1300.23 118.241H1297.95C1297.18 118.241 1296.55 117.612 1296.55 116.836V113.854C1296.55 112.529 1295.47 111.455 1294.15 111.455H1290.4C1289.07 111.455 1288 112.529 1288 113.854V173.432H1323.92L1323.81 113.849Z" fill="white"/>
<path d="M1435.81 113.419C1435.81 112.779 1435.55 112.167 1435.1 111.717C1434.64 111.267 1434.02 111.018 1433.38 111.025L1429.63 111.063C1428.32 111.077 1427.26 112.147 1427.26 113.462V116.381C1427.26 117.157 1426.63 117.785 1425.86 117.785H1423.58C1422.8 117.785 1422.18 117.156 1422.18 116.381V113.398C1422.18 112.074 1421.1 111 1419.78 111H1416.03C1414.7 111 1413.63 112.074 1413.63 113.398V116.381C1413.63 117.157 1413 117.785 1412.22 117.785H1409.96C1409.18 117.785 1408.55 117.156 1408.55 116.381V113.398C1408.55 112.074 1407.48 111 1406.15 111H1402.4C1401.07 111 1400 112.074 1400 113.398V172.976H1435.92L1435.81 113.419Z" fill="white"/>
<path d="M334.077 87.8327V82.3537V77.9664C334.077 76.6418 333.003 75.5677 331.678 75.5677H327.933C326.608 75.5677 325.534 76.6418 325.534 77.9664V80.9492C325.534 81.725 324.905 82.3537 324.13 82.3537H321.858C321.082 82.3537 320.454 81.7247 320.454 80.9492V77.9664C320.454 76.6418 319.379 75.5677 318.055 75.5677H314.3C312.975 75.5677 311.901 76.6418 311.901 77.9664V80.9492C311.901 81.725 311.272 82.3537 310.496 82.3537H308.206C307.438 82.3537 306.812 81.7363 306.802 80.9683L306.76 77.9335C306.742 76.6218 305.674 75.5677 304.362 75.5677H300.583C299.259 75.5677 298.185 76.6418 298.185 77.9664V80.9492C298.185 81.725 297.556 82.3537 296.78 82.3537H294.509C293.733 82.3537 293.104 81.7247 293.104 80.9492V77.9664C293.104 76.6418 292.03 75.5677 290.706 75.5677H286.951C285.626 75.5677 284.552 76.6418 284.552 77.9664V80.9492C284.552 81.725 283.923 82.3537 283.148 82.3537H280.876C280.1 82.3537 279.471 81.7247 279.471 80.9492V77.9664C279.471 76.6418 278.397 75.5677 277.073 75.5677H273.323C271.998 75.5677 270.924 76.6418 270.924 77.9664V82.3537V87.8327L275.961 94.5613H275.991V169.433H329.009V94.5613H329.04L334.077 87.8327ZM309.112 122.524H295.879V111.408C295.879 107.756 298.84 104.793 302.496 104.793C306.152 104.793 309.112 107.756 309.112 111.409V122.524H309.112Z" fill="white"/>
<path d="M369.886 109.874C369.885 109.234 369.628 108.622 369.173 108.172C368.718 107.722 368.102 107.473 367.463 107.48L363.712 107.519C362.397 107.532 361.339 108.602 361.339 109.917V112.836C361.339 113.612 360.71 114.241 359.934 114.241H357.657C356.882 114.241 356.253 113.612 356.253 112.836V109.854C356.253 108.529 355.179 107.455 353.855 107.455H350.104C348.78 107.455 347.706 108.529 347.706 109.854V112.836C347.706 113.612 347.077 114.241 346.302 114.241H344.034C343.258 114.241 342.629 113.612 342.629 112.836V109.854C342.629 108.529 341.556 107.455 340.231 107.455H336.476C335.151 107.455 334.078 108.529 334.078 109.854V169.431H370L369.886 109.874Z" fill="white"/>
<path d="M270.809 109.849C270.807 108.526 269.733 107.455 268.41 107.455H264.716C263.404 107.455 262.335 108.509 262.317 109.821L262.276 112.855C262.266 113.623 261.64 114.24 260.872 114.24H258.585C257.809 114.24 257.18 113.612 257.18 112.836V109.854C257.18 108.529 256.107 107.455 254.782 107.455H251.031C249.707 107.455 248.633 108.529 248.633 109.854V112.836C248.633 113.612 248.004 114.241 247.228 114.241H244.952C244.176 114.241 243.548 113.612 243.548 112.836V109.854C243.548 108.529 242.474 107.455 241.149 107.455H237.398C236.074 107.455 235 108.529 235 109.854V169.432H270.923L270.809 109.849Z" fill="white"/>
<path d="M1108.08 81.8327V76.3537V71.9664C1108.08 70.6418 1107 69.5677 1105.68 69.5677H1101.93C1100.61 69.5677 1099.53 70.6418 1099.53 71.9664V74.9492C1099.53 75.725 1098.9 76.3537 1098.13 76.3537H1095.86C1095.08 76.3537 1094.45 75.7247 1094.45 74.9492V71.9664C1094.45 70.6418 1093.38 69.5677 1092.05 69.5677H1088.3C1086.97 69.5677 1085.9 70.6418 1085.9 71.9664V74.9492C1085.9 75.725 1085.27 76.3537 1084.5 76.3537H1082.21C1081.44 76.3537 1080.81 75.7363 1080.8 74.9683L1080.76 71.9335C1080.74 70.6218 1079.67 69.5677 1078.36 69.5677H1074.58C1073.26 69.5677 1072.18 70.6418 1072.18 71.9664V74.9492C1072.18 75.725 1071.56 76.3537 1070.78 76.3537H1068.51C1067.73 76.3537 1067.1 75.7247 1067.1 74.9492V71.9664C1067.1 70.6418 1066.03 69.5677 1064.71 69.5677H1060.95C1059.63 69.5677 1058.55 70.6418 1058.55 71.9664V74.9492C1058.55 75.725 1057.92 76.3537 1057.15 76.3537H1054.88C1054.1 76.3537 1053.47 75.7247 1053.47 74.9492V71.9664C1053.47 70.6418 1052.4 69.5677 1051.07 69.5677H1047.32C1046 69.5677 1044.92 70.6418 1044.92 71.9664V76.3537V81.8327L1049.96 88.5613H1049.99V163.433H1103.01V88.5613H1103.04L1108.08 81.8327ZM1083.11 116.524H1069.88V105.408C1069.88 101.756 1072.84 98.7933 1076.5 98.7933C1080.15 98.7933 1083.11 101.756 1083.11 105.409V116.524H1083.11Z" fill="white"/>
<path d="M1143.89 103.874C1143.88 103.234 1143.63 102.622 1143.17 102.172C1142.72 101.722 1142.1 101.473 1141.46 101.48L1137.71 101.519C1136.4 101.532 1135.34 102.602 1135.34 103.917V106.836C1135.34 107.612 1134.71 108.241 1133.93 108.241H1131.66C1130.88 108.241 1130.25 107.612 1130.25 106.836V103.854C1130.25 102.529 1129.18 101.455 1127.85 101.455H1124.1C1122.78 101.455 1121.71 102.529 1121.71 103.854V106.836C1121.71 107.612 1121.08 108.241 1120.3 108.241H1118.03C1117.26 108.241 1116.63 107.612 1116.63 106.836V103.854C1116.63 102.529 1115.56 101.455 1114.23 101.455H1110.48C1109.15 101.455 1108.08 102.529 1108.08 103.854V163.431H1144L1143.89 103.874Z" fill="white"/>
<path d="M1044.81 103.849C1044.81 102.526 1043.73 101.455 1042.41 101.455H1038.72C1037.4 101.455 1036.33 102.509 1036.32 103.821L1036.28 106.855C1036.27 107.623 1035.64 108.24 1034.87 108.24H1032.58C1031.81 108.24 1031.18 107.612 1031.18 106.836V103.854C1031.18 102.529 1030.11 101.455 1028.78 101.455H1025.03C1023.71 101.455 1022.63 102.529 1022.63 103.854V106.836C1022.63 107.612 1022 108.241 1021.23 108.241H1018.95C1018.18 108.241 1017.55 107.612 1017.55 106.836V103.854C1017.55 102.529 1016.47 101.455 1015.15 101.455H1011.4C1010.07 101.455 1009 102.529 1009 103.854V163.432H1044.92L1044.81 103.849Z" fill="white"/>
<path d="M513.886 125.874C513.885 125.234 513.628 124.622 513.173 124.172C512.718 123.722 512.102 123.473 511.463 123.48L507.712 123.519C506.397 123.532 505.339 124.602 505.339 125.917V128.836C505.339 129.612 504.71 130.241 503.934 130.241H501.657C500.882 130.241 500.253 129.612 500.253 128.836V125.854C500.253 124.529 499.179 123.455 497.855 123.455H494.104C492.78 123.455 491.706 124.529 491.706 125.854V128.836C491.706 129.612 491.077 130.241 490.302 130.241H488.034C487.258 130.241 486.629 129.612 486.629 128.836V125.854C486.629 124.529 485.556 123.455 484.231 123.455H480.476C479.151 123.455 478.078 124.529 478.078 125.854V185.431H514L513.886 125.874Z" fill="white"/>
<path d="M477.809 125.394C477.807 124.071 476.733 123 475.41 123H471.716C470.404 123 469.335 124.054 469.317 125.366L469.276 128.4C469.266 129.168 468.64 129.786 467.872 129.786H465.585C464.809 129.786 464.18 129.157 464.18 128.381V125.399C464.18 124.074 463.107 123 461.782 123H458.031C456.707 123 455.633 124.074 455.633 125.399V128.381C455.633 129.157 455.004 129.786 454.228 129.786H451.952C451.176 129.786 450.548 129.157 450.548 128.381V125.399C450.548 124.074 449.474 123 448.149 123H444.398C443.074 123 442 124.074 442 125.399V184.978H477.923L477.809 125.394Z" fill="white"/>
<path d="M1287.89 119.874C1287.88 119.234 1287.63 118.622 1287.17 118.172C1286.72 117.722 1286.1 117.473 1285.46 117.48L1281.71 117.519C1280.4 117.532 1279.34 118.602 1279.34 119.917V122.836C1279.34 123.612 1278.71 124.241 1277.93 124.241H1275.66C1274.88 124.241 1274.25 123.612 1274.25 122.836V119.854C1274.25 118.529 1273.18 117.455 1271.85 117.455H1268.1C1266.78 117.455 1265.71 118.529 1265.71 119.854V122.836C1265.71 123.612 1265.08 124.241 1264.3 124.241H1262.03C1261.26 124.241 1260.63 123.612 1260.63 122.836V119.854C1260.63 118.529 1259.56 117.455 1258.23 117.455H1254.48C1253.15 117.455 1252.08 118.529 1252.08 119.854V179.431H1288L1287.89 119.874Z" fill="white"/>
<path d="M1251.81 119.394C1251.81 118.071 1250.73 117 1249.41 117H1245.72C1244.4 117 1243.33 118.054 1243.32 119.366L1243.28 122.4C1243.27 123.168 1242.64 123.786 1241.87 123.786H1239.58C1238.81 123.786 1238.18 123.157 1238.18 122.381V119.399C1238.18 118.074 1237.11 117 1235.78 117H1232.03C1230.71 117 1229.63 118.074 1229.63 119.399V122.382C1229.63 123.157 1229 123.786 1228.23 123.786H1225.95C1225.18 123.786 1224.55 123.157 1224.55 122.382V119.399C1224.55 118.074 1223.47 117 1222.15 117H1218.4C1217.07 117 1216 118.074 1216 119.399V178.978H1251.92L1251.81 119.394Z" fill="white"/>
<path d="M234.886 125.874C234.885 125.234 234.628 124.622 234.173 124.172C233.718 123.722 233.102 123.473 232.463 123.48L228.712 123.519C227.397 123.532 226.339 124.602 226.339 125.917V128.836C226.339 129.612 225.71 130.241 224.934 130.241H222.657C221.882 130.241 221.253 129.612 221.253 128.836V125.854C221.253 124.529 220.179 123.455 218.855 123.455H215.104C213.78 123.455 212.706 124.529 212.706 125.854V128.836C212.706 129.612 212.077 130.241 211.302 130.241H209.034C208.258 130.241 207.629 129.612 207.629 128.836V125.854C207.629 124.529 206.556 123.455 205.231 123.455H201.476C200.151 123.455 199.078 124.529 199.078 125.854V185.431H235L234.886 125.874Z" fill="white"/>
<path d="M198.809 125.394C198.807 124.071 197.733 123 196.41 123H192.716C191.404 123 190.335 124.054 190.317 125.366L190.276 128.4C190.266 129.168 189.64 129.786 188.872 129.786H186.585C185.809 129.786 185.18 129.157 185.18 128.381V125.399C185.18 124.074 184.107 123 182.782 123H179.031C177.707 123 176.633 124.074 176.633 125.399V128.381C176.633 129.157 176.004 129.786 175.228 129.786H172.952C172.176 129.786 171.548 129.157 171.548 128.381V125.399C171.548 124.074 170.474 123 169.149 123H165.398C164.074 123 163 124.074 163 125.399V184.978H198.923L198.809 125.394Z" fill="white"/>
<path d="M1008.89 119.874C1008.88 119.234 1008.63 118.622 1008.17 118.172C1007.72 117.722 1007.1 117.473 1006.46 117.48L1002.71 117.519C1001.4 117.532 1000.34 118.602 1000.34 119.917V122.836C1000.34 123.612 999.71 124.241 998.934 124.241H996.657C995.882 124.241 995.253 123.612 995.253 122.836V119.854C995.253 118.529 994.179 117.455 992.855 117.455H989.104C987.78 117.455 986.706 118.529 986.706 119.854V122.836C986.706 123.612 986.077 124.241 985.302 124.241H983.034C982.258 124.241 981.629 123.612 981.629 122.836V119.854C981.629 118.529 980.556 117.455 979.231 117.455H975.476C974.151 117.455 973.078 118.529 973.078 119.854V179.431H1009L1008.89 119.874Z" fill="white"/>
<path d="M972.809 119.394C972.807 118.071 971.733 117 970.41 117H966.716C965.404 117 964.335 118.054 964.317 119.366L964.276 122.4C964.266 123.168 963.64 123.786 962.872 123.786H960.585C959.809 123.786 959.18 123.157 959.18 122.381V119.399C959.18 118.074 958.107 117 956.782 117H953.031C951.707 117 950.633 118.074 950.633 119.399V122.382C950.633 123.157 950.004 123.786 949.228 123.786H946.952C946.176 123.786 945.548 123.157 945.548 122.382V119.399C945.548 118.074 944.474 117 943.149 117H939.398C938.074 117 937 118.074 937 119.399V178.978H972.923L972.809 119.394Z" fill="white"/>
<path d="M162.886 125.874C162.885 125.234 162.628 124.622 162.173 124.172C161.718 123.722 161.102 123.473 160.463 123.48L156.712 123.519C155.397 123.532 154.339 124.602 154.339 125.917V128.836C154.339 129.612 153.71 130.241 152.934 130.241H150.657C149.882 130.241 149.253 129.612 149.253 128.836V125.854C149.253 124.529 148.179 123.455 146.855 123.455H143.104C141.78 123.455 140.706 124.529 140.706 125.854V128.836C140.706 129.612 140.077 130.241 139.302 130.241H137.034C136.258 130.241 135.629 129.612 135.629 128.836V125.854C135.629 124.529 134.556 123.455 133.231 123.455H129.476C128.151 123.455 127.078 124.529 127.078 125.854V185.431H163L162.886 125.874Z" fill="white"/>
<path d="M126.809 125.394C126.807 124.071 125.733 123 124.41 123H120.716C119.404 123 118.335 124.054 118.317 125.366L118.276 128.4C118.266 129.168 117.64 129.786 116.872 129.786H114.585C113.809 129.786 113.18 129.157 113.18 128.381V125.399C113.18 124.074 112.107 123 110.782 123H107.031C105.707 123 104.633 124.074 104.633 125.399V128.381C104.633 129.157 104.004 129.786 103.228 129.786H100.952C100.176 129.786 99.5476 129.157 99.5476 128.381V125.399C99.5476 124.074 98.4736 123 97.1489 123H93.3984C92.0738 123 91 124.074 91 125.399V184.978H126.923L126.809 125.394Z" fill="white"/>
<path d="M936.886 119.874C936.885 119.234 936.628 118.622 936.173 118.172C935.718 117.722 935.102 117.473 934.463 117.48L930.712 117.519C929.397 117.532 928.339 118.602 928.339 119.917V122.836C928.339 123.612 927.71 124.241 926.934 124.241H924.657C923.882 124.241 923.253 123.612 923.253 122.836V119.854C923.253 118.529 922.179 117.455 920.855 117.455H917.104C915.78 117.455 914.706 118.529 914.706 119.854V122.836C914.706 123.612 914.077 124.241 913.302 124.241H911.034C910.258 124.241 909.629 123.612 909.629 122.836V119.854C909.629 118.529 908.556 117.455 907.231 117.455H903.476C902.151 117.455 901.078 118.529 901.078 119.854V179.431H937L936.886 119.874Z" fill="white"/>
<path d="M900.809 119.394C900.807 118.071 899.733 117 898.41 117H894.716C893.404 117 892.335 118.054 892.317 119.366L892.276 122.4C892.266 123.168 891.64 123.786 890.872 123.786H888.585C887.809 123.786 887.18 123.157 887.18 122.381V119.399C887.18 118.074 886.107 117 884.782 117H881.031C879.707 117 878.633 118.074 878.633 119.399V122.382C878.633 123.157 878.004 123.786 877.228 123.786H874.952C874.176 123.786 873.548 123.157 873.548 122.382V119.399C873.548 118.074 872.474 117 871.149 117H867.398C866.074 117 865 118.074 865 119.399V178.978H900.923L900.809 119.394Z" fill="white"/>
<path d="M90.8859 125.874C90.8848 125.234 90.6281 124.622 90.173 124.172C89.718 123.722 89.1023 123.473 88.4625 123.48L84.7123 123.519C83.3973 123.532 82.3385 124.602 82.3385 125.917V128.836C82.3385 129.612 81.7096 130.241 80.9341 130.241H78.6573C77.8818 130.241 77.2531 129.612 77.2531 128.836V125.854C77.2531 124.529 76.1793 123.455 74.8547 123.455H71.1044C69.7798 123.455 68.706 124.529 68.706 125.854V128.836C68.706 129.612 68.077 130.241 67.3018 130.241H65.0336C64.2581 130.241 63.6294 129.612 63.6294 128.836V125.854C63.6294 124.529 62.5557 123.455 61.231 123.455H57.4761C56.1514 123.455 55.0776 124.529 55.0776 125.854V185.431H91L90.8859 125.874Z" fill="white"/>
<path d="M54.8091 125.394C54.8066 124.071 53.7334 123 52.4104 123H48.7155C47.4036 123 46.3348 124.054 46.3171 125.366L46.2758 128.4C46.2656 129.168 45.64 129.786 44.8717 129.786H42.5849C41.8091 129.786 41.1804 129.157 41.1804 128.381V125.399C41.1804 124.074 40.1067 123 38.782 123H35.0315C33.7068 123 32.6328 124.074 32.6328 125.399V128.381C32.6328 129.157 32.0038 129.786 31.2284 129.786H28.9521C28.1763 129.786 27.5476 129.157 27.5476 128.381V125.399C27.5476 124.074 26.4736 123 25.1489 123H21.3984C20.0738 123 19 124.074 19 125.399V184.978H54.9235L54.8091 125.394Z" fill="white"/>
<path d="M41.8091 125.394C41.8066 124.071 40.7334 123 39.4104 123H35.7155C34.4036 123 33.3348 124.054 33.3171 125.366L33.2758 128.4C33.2656 129.168 32.64 129.786 31.8717 129.786H29.5849C28.8091 129.786 28.1804 129.157 28.1804 128.381V125.399C28.1804 124.074 27.1067 123 25.782 123H22.0315C20.7068 123 19.6328 124.074 19.6328 125.399V128.381C19.6328 129.157 19.0038 129.786 18.2284 129.786H15.9521C15.1763 129.786 14.5476 129.157 14.5476 128.381V125.399C14.5476 124.074 13.4736 123 12.1489 123H8.39842C7.07375 123 6 124.074 6 125.399V184.978H41.9235L41.8091 125.394Z" fill="white"/>
<path d="M864.886 119.874C864.885 119.234 864.628 118.622 864.173 118.172C863.718 117.722 863.102 117.473 862.463 117.48L858.712 117.519C857.397 117.532 856.339 118.602 856.339 119.917V122.836C856.339 123.612 855.71 124.241 854.934 124.241H852.657C851.882 124.241 851.253 123.612 851.253 122.836V119.854C851.253 118.529 850.179 117.455 848.855 117.455H845.104C843.78 117.455 842.706 118.529 842.706 119.854V122.836C842.706 123.612 842.077 124.241 841.302 124.241H839.034C838.258 124.241 837.629 123.612 837.629 122.836V119.854C837.629 118.529 836.556 117.455 835.231 117.455H831.476C830.151 117.455 829.078 118.529 829.078 119.854V179.431H865L864.886 119.874Z" fill="white"/>
<path d="M828.809 119.394C828.807 118.071 827.733 117 826.41 117H822.716C821.404 117 820.335 118.054 820.317 119.366L820.276 122.4C820.266 123.168 819.64 123.786 818.872 123.786H816.585C815.809 123.786 815.18 123.157 815.18 122.381V119.399C815.18 118.074 814.107 117 812.782 117H809.031C807.707 117 806.633 118.074 806.633 119.399V122.382C806.633 123.157 806.004 123.786 805.228 123.786H802.952C802.176 123.786 801.548 123.157 801.548 122.382V119.399C801.548 118.074 800.474 117 799.149 117H795.398C794.074 117 793 118.074 793 119.399V178.978H828.923L828.809 119.394Z" fill="white"/>
<path d="M815.809 119.394C815.807 118.071 814.733 117 813.41 117H809.716C808.404 117 807.335 118.054 807.317 119.366L807.276 122.4C807.266 123.168 806.64 123.786 805.872 123.786H803.585C802.809 123.786 802.18 123.157 802.18 122.381V119.399C802.18 118.074 801.107 117 799.782 117H796.031C794.707 117 793.633 118.074 793.633 119.399V122.382C793.633 123.157 793.004 123.786 792.228 123.786H789.952C789.176 123.786 788.548 123.157 788.548 122.382V119.399C788.548 118.074 787.474 117 786.149 117H782.398C781.074 117 780 118.074 780 119.399V178.978H815.923L815.809 119.394Z" fill="white"/>
<path d="M441.886 125.874C441.885 125.234 441.628 124.622 441.173 124.172C440.718 123.722 440.102 123.473 439.463 123.48L435.712 123.519C434.397 123.532 433.339 124.602 433.339 125.917V128.836C433.339 129.612 432.71 130.241 431.934 130.241H429.657C428.882 130.241 428.253 129.612 428.253 128.836V125.854C428.253 124.529 427.179 123.455 425.855 123.455H422.104C420.78 123.455 419.706 124.529 419.706 125.854V128.836C419.706 129.612 419.077 130.241 418.302 130.241H416.034C415.258 130.241 414.629 129.612 414.629 128.836V125.854C414.629 124.529 413.556 123.455 412.231 123.455H408.476C407.151 123.455 406.078 124.529 406.078 125.854V185.431H442L441.886 125.874Z" fill="white"/>
<path d="M405.809 125.394C405.807 124.071 404.733 123 403.41 123H399.716C398.404 123 397.335 124.054 397.317 125.366L397.276 128.4C397.266 129.168 396.64 129.786 395.872 129.786H393.585C392.809 129.786 392.18 129.157 392.18 128.381V125.399C392.18 124.074 391.107 123 389.782 123H386.031C384.707 123 383.633 124.074 383.633 125.399V128.381C383.633 129.157 383.004 129.786 382.228 129.786H379.952C379.176 129.786 378.548 129.157 378.548 128.381V125.399C378.548 124.074 377.474 123 376.149 123H372.398C371.074 123 370 124.074 370 125.399V184.978H405.923L405.809 125.394Z" fill="white"/>
<path d="M1215.89 119.874C1215.88 119.234 1215.63 118.622 1215.17 118.172C1214.72 117.722 1214.1 117.473 1213.46 117.48L1209.71 117.519C1208.4 117.532 1207.34 118.602 1207.34 119.917V122.836C1207.34 123.612 1206.71 124.241 1205.93 124.241H1203.66C1202.88 124.241 1202.25 123.612 1202.25 122.836V119.854C1202.25 118.529 1201.18 117.455 1199.85 117.455H1196.1C1194.78 117.455 1193.71 118.529 1193.71 119.854V122.836C1193.71 123.612 1193.08 124.241 1192.3 124.241H1190.03C1189.26 124.241 1188.63 123.612 1188.63 122.836V119.854C1188.63 118.529 1187.56 117.455 1186.23 117.455H1182.48C1181.15 117.455 1180.08 118.529 1180.08 119.854V179.431H1216L1215.89 119.874Z" fill="white"/>
<path d="M1179.81 119.394C1179.81 118.071 1178.73 117 1177.41 117H1173.72C1172.4 117 1171.33 118.054 1171.32 119.366L1171.28 122.4C1171.27 123.168 1170.64 123.786 1169.87 123.786H1167.58C1166.81 123.786 1166.18 123.157 1166.18 122.381V119.399C1166.18 118.074 1165.11 117 1163.78 117H1160.03C1158.71 117 1157.63 118.074 1157.63 119.399V122.382C1157.63 123.157 1157 123.786 1156.23 123.786H1153.95C1153.18 123.786 1152.55 123.157 1152.55 122.382V119.399C1152.55 118.074 1151.47 117 1150.15 117H1146.4C1145.07 117 1144 118.074 1144 119.399V178.978H1179.92L1179.81 119.394Z" fill="white"/>
</svg>
